<?xml version="1.0" encoding="utf-8"?>
<!-- Generator: Adobe Illustrator 24.1.1, SVG Export Plug-In . SVG Version: 6.00 Build 0)  -->
<svg version="1.1" id="Layer_1" xmlns="http://www.w3.org/2000/svg" xmlns:xlink="http://www.w3.org/1999/xlink" x="0px" y="0px"
	 viewBox="0 0 255 124.7" style="enable-background:new 0 0 255 124.7;" xml:space="preserve">
<style type="text/css">
	.st0{fill:url(#SVGID_1_);stroke:#000000;stroke-width:4;stroke-miterlimit:10;}
	.st1{fill:none;stroke:#000000;stroke-width:3;stroke-miterlimit:10;}
	.st2{fill:#FFFFFF;stroke:#939393;stroke-width:3;stroke-miterlimit:10;}
	.st3{fill:#FFFFFF;stroke:#000000;stroke-width:3;stroke-miterlimit:10;}
	.st4{fill:none;stroke:#000000;stroke-miterlimit:10;}
	.st5{fill:none;stroke:#000000;stroke-miterlimit:10;stroke-dasharray:3.0509,1.017;}
	.st6{enable-background:new    ;}
	.st7{fill:#939393;}
</style>
<linearGradient id="SVGID_1_" gradientUnits="userSpaceOnUse" x1="121.64" y1="117" x2="121.64" y2="6.44" gradientTransform="matrix(1 0 0 -1 0 126)">
	<stop  offset="0" style="stop-color:#FFFFFF"/>
	<stop  offset="0.3781" style="stop-color:#FFEEE3"/>
	<stop  offset="0.9384" style="stop-color:#939393"/>
</linearGradient>
<path class="st0" d="M224.9,68.3c7.8,27.2-46.2,51.2-103.2,51.2S10.6,95.5,18.4,68.3C31.3,23.6,76.5,9,121.6,9
	C166.8,9,212,23.6,224.9,68.3z"/>
<path class="st1" d="M70,16.8c0,0,19.4-5,51.6-5c32.5,0,51.6,5,51.6,5"/>
<polygon class="st2" points="183.5,35.1 182,44.4 189.5,54.6 200.1,46.8 192.6,36.6 "/>
<polygon class="st3" points="183.5,31.5 182,40.9 189.5,51 200.1,43.2 192.6,33.1 "/>
<circle cx="186.8" cy="35.8" r="1.2"/>
<g>
	<g>
		<path class="st4" d="M183.5,31.5c0,0-0.2-0.5-0.5-1.4"/>
		<path class="st5" d="M182.6,29.2c-0.7-1.5-1.8-3.6-3.3-5.7c-2.1-2.8-5.9-6.4-10.5-7.6"/>
		<path class="st4" d="M168.3,15.7c-0.5-0.1-1-0.2-1.5-0.3"/>
	</g>
</g>
<g>
	<path d="M28.3,75c-2.5,0.6-4.9,0.9-7.1,1s-4.3-0.1-6.3-0.6c-2-0.5-3.9-1.5-5.6-2.9s-3.5-3.3-5.1-5.8c-2-3-3.2-6.1-3.7-9.1
		c-0.5-3-0.3-5.9,0.6-8.8C2,46,3.5,43.3,5.6,40.7c2.2-2.5,4.9-4.9,8.3-7.1c3-2,6.4-3.6,9.5-4.5c7.6-2.2,12.6-2.3,19.7,1.3
		c-2.4,2-5.2,5-9.2,8.4c-1-0.2-0.6,0.3-1.4,0.3c-1.2,0-1.9,0-3.1,0.5c-1.2,0.4-2.3,0.9-3.7,1.6s-3,1.6-4.6,2.7c-1,0.7-2,1.4-2.9,2.3
		c-0.9,0.9-1.7,1.8-2.2,2.8c-0.5,1-0.8,2.2-0.7,3.4c0.1,1.3,0.6,2.7,1.6,4.2c0.8,1.2,1.6,2.1,2.6,2.6c0.9,0.5,2,0.8,3,1
		c1.1,0.1,2.2,0.1,3.4-0.1c1.1-0.2,2.3-0.4,3.4-0.6L36,58c2.8-0.6,5.5-1,8-1.2c2.5-0.3,4.8-0.1,7,0.5s4.3,1.6,6.3,3.2
		c2,1.5,4,3.8,5.9,6.7c2,3,3.2,6.2,3.8,9.4c0.5,3.2,0.3,6.4-0.6,9.6s-2.6,6.2-5,9.3c-2.4,3-5.6,5.8-9.6,8.4c-2,1.3-3.8,2.4-5.4,3.3
		s-3.2,1.7-4.8,2.3s-3.2,1.2-4.8,1.7c-1.7,0.5-3.4,0.9-5.3,1.3c-1-1.8-1.8-3.9-2.5-6.1c-0.8-2.2-1.4-4.4-2-6.8
		c3.2-0.6,6-1.4,8.6-2.3s5.1-2.2,7.6-3.8c3.8-2.4,6.3-5.1,7.5-7.9s0.9-5.6-0.9-8.5c-0.9-1.4-2-2.5-3.1-3.1c-1.1-0.6-2.3-1-3.5-1.1
		c-1.2-0.1-2.5-0.1-3.8,0.1s-2.6,0.5-4,0.7L28.3,75z"/>
</g>
<g>
	<path d="M239.9,40.6c1.5-0.4,6.5-0.7,7.5-0.7c1.2,0,5.7,0.1,7.6,0.7l-45.8,66.6c-2.7-0.9-5.4-2-8-3.2c-2.6-1.3-5.6-3-8.9-5.3
		c-2.6-1.8-4.8-3.8-6.6-6.1s-3.2-4.9-3.9-7.6s-0.8-5.7-0.2-8.8c0.6-3.1,2.1-6.4,4.5-9.9c1.9-2.8,4.1-5,6.7-6.9s5.3-3.1,8.2-3.7
		c2.9-0.6,5.9-0.7,9-0.1c3.1,0.6,6.1,1.9,9,3.9c0.9,0.6,1.8,1.3,2.6,2c0.9,0.7,1.7,1.5,2.4,2.3L239.9,40.6z M218.1,71.1
		c-0.8-0.9-0.9-1-1.5-1.5c-0.6-0.5-1.3-1.1-2.2-1.7c-1.6-1.1-3.2-1.7-4.9-1.9c-1.6-0.2-3.2,0-4.7,0.6c-1.5,0.6-3,1.4-4.4,2.7
		c-1.4,1.2-2.6,2.6-3.7,4.2c-1.4,2-2.3,3.8-2.8,5.6c-0.5,1.7-0.6,3.3-0.3,4.7s0.9,2.7,1.8,3.8c0.9,1.2,2.1,2.2,3.4,3.2
		c0.8,0.6,1.6,1.1,2.3,1.4s0.7,0.4,1.6,0.7L218.1,71.1z"/>
</g>
<g class="st6">
	<path d="M66.4,53.6l-3.9,0.7L62,53.1l8.9-16.4l1.4-0.2l1.5,9.2l7.3-1.2c0.2,0.6,0.4,1.1,0.5,1.6c0.1,0.5,0.2,1,0.3,1.5
		c0.1,0.6,0.2,1.1,0.2,1.6c0,0.5,0.1,1.1,0.1,1.8l-7.3,1.2L77,64.6c0.2,1.3,0.5,2.3,0.8,3c0.3,0.7,0.7,1.3,1.2,1.7s1,0.6,1.6,0.7
		c0.6,0.1,1.3,0,2-0.1c0.6-0.1,1.2-0.3,1.8-0.5c0.6-0.2,1.1-0.4,1.5-0.5c0.4,0.7,0.7,1.5,1,2.3c0.3,0.8,0.4,1.5,0.6,2.2
		c0.1,0.4,0.1,0.8,0.2,1.1c0,0.3,0,0.6,0.1,0.9c-1.8,0.8-3.7,1.3-5.7,1.6c-3.7,0.6-6.6,0.2-8.9-1.2c-2.2-1.4-3.7-4-4.3-7.9
		L66.4,53.6z"/>
</g>
<g class="st6">
	<path d="M95.8,60.7c0.2,2.5,1.2,4.2,2.8,5.3c1.6,1.1,3.7,1.5,6.2,1.5c1.4,0,2.8-0.2,4.3-0.5c1.4-0.3,2.8-0.7,4.1-1.3
		c0.5,0.8,0.9,1.8,1.3,2.9c0.4,1.1,0.6,2.4,0.7,3.7c-3.2,1.3-6.8,2.1-10.8,2.2c-3,0.1-5.5-0.2-7.6-1c-2.1-0.8-3.9-1.8-5.3-3.3
		c-1.4-1.4-2.4-3.1-3.1-5.1c-0.7-2-1.1-4.2-1.2-6.6c-0.1-2.3,0.2-4.5,0.8-6.6c0.6-2.1,1.5-3.9,2.8-5.4c1.2-1.6,2.8-2.8,4.7-3.8
		c1.9-0.9,4.1-1.5,6.6-1.5c2.2-0.1,4.2,0.3,5.9,1c1.7,0.7,3.2,1.7,4.5,3.1c1.3,1.3,2.2,2.9,2.9,4.7c0.7,1.8,1,3.8,1.1,6
		c0,0.8,0,1.5,0,2.3s-0.1,1.4-0.2,1.8L95.8,60.7z M108.1,54.2c-0.1-2-0.7-3.5-1.8-4.7c-1-1.2-2.5-1.7-4.3-1.7
		c-2.1,0.1-3.6,0.7-4.6,1.9c-1,1.2-1.6,2.8-1.8,4.9L108.1,54.2z"/>
</g>
<g class="st6">
	<path d="M128.3,60.7c0.2,2.5,1.2,4.2,2.8,5.3c1.6,1.1,3.7,1.5,6.2,1.5c1.4,0,2.8-0.2,4.3-0.5c1.4-0.3,2.8-0.7,4.1-1.3
		c0.5,0.8,0.9,1.8,1.3,2.9c0.4,1.1,0.6,2.4,0.7,3.7c-3.2,1.3-6.8,2.1-10.8,2.2c-3,0.1-5.5-0.2-7.6-1c-2.1-0.8-3.9-1.8-5.3-3.3
		c-1.4-1.4-2.4-3.1-3.1-5.1c-0.7-2-1.1-4.2-1.2-6.6c-0.1-2.3,0.2-4.5,0.8-6.6c0.6-2.1,1.5-3.9,2.8-5.4c1.2-1.6,2.8-2.8,4.7-3.8
		c1.9-0.9,4.1-1.5,6.6-1.5c2.2-0.1,4.2,0.3,5.9,1c1.7,0.7,3.2,1.7,4.5,3.1c1.3,1.3,2.2,2.9,2.9,4.7c0.7,1.8,1,3.8,1.1,6
		c0,0.8,0,1.5,0,2.3c0,0.8-0.1,1.4-0.2,1.8L128.3,60.7z M140.6,54.2c-0.1-2-0.7-3.5-1.8-4.7c-1-1.2-2.5-1.7-4.3-1.7
		c-2.1,0.1-3.6,0.7-4.6,1.9c-1,1.2-1.6,2.8-1.8,4.9L140.6,54.2z"/>
</g>
<g class="st6">
	<path d="M156.1,43.1c0.6,0,1.2,0,1.7,0.1c0.6,0.1,1.2,0.2,1.9,0.3c1.1,0.2,2.3,0.5,3.4,1c0.1,0.2,0.1,0.5,0.2,0.9
		c0,0.4,0.1,0.8,0.1,1.3c0,0.5,0,0.9,0,1.3c0,0.4,0,0.8,0,1.1c0.5-0.6,1-1.1,1.7-1.7c0.6-0.5,1.4-1,2.2-1.3c0.8-0.3,1.7-0.6,2.7-0.7
		c1-0.1,2-0.1,3.2,0.1c1.7,0.3,3.3,0.9,4.7,1.9c1.4,0.9,2.5,2.1,3.4,3.7c0.9,1.5,1.5,3.3,1.7,5.4c0.3,2.1,0.2,4.5-0.3,7.2
		c-0.5,2.6-1.3,4.9-2.4,6.8c-1.1,1.9-2.6,3.5-4.3,4.7c-1.7,1.2-3.7,2-5.9,2.4c-2.2,0.4-4.7,0.4-7.4-0.1c-0.7-0.1-1.4-0.3-2-0.5
		c-0.7-0.2-1.2-0.4-1.6-0.5l-2.5,13.9c-0.8,0-1.5-0.1-2.3-0.2c-0.7-0.1-1.4-0.2-2.1-0.3c-0.7-0.1-1.4-0.3-2.1-0.4
		c-0.7-0.2-1.4-0.4-2.2-0.6L156.1,43.1z M160.2,69.4c1,0.5,2.3,0.9,3.7,1.2c2.5,0.5,4.6,0,6.2-1.4c1.6-1.4,2.7-3.7,3.3-7
		c0.2-1.3,0.3-2.4,0.3-3.5c0-1.1-0.2-2.1-0.5-2.9c-0.3-0.9-0.8-1.6-1.5-2.2s-1.5-1-2.6-1.2c-1-0.2-1.9-0.1-2.7,0.1
		c-0.8,0.3-1.4,0.7-2,1.3c-0.6,0.6-1,1.3-1.4,2.2c-0.4,0.9-0.6,1.8-0.8,2.8L160.2,69.4z"/>
</g>
<polygon points="70,111.8 70,105.3 75.3,108.5 "/>
<polygon points="173.3,105.3 173.3,111.8 169.4,110.7 "/>
<ellipse cx="121.6" cy="111.8" rx="51.6" ry="12.9"/>
<ellipse cx="121.6" cy="105.3" rx="51.6" ry="12.9"/>
<path class="st7" d="M166.8,111.8c-2.5,3.4-20.2,7.5-45.2,7.5s-42.4-4.2-45.2-7.5c0,0,8.5-6.4,45.2-6.4
	C156.2,105.3,166.8,111.8,166.8,111.8z"/>
<path d="M112.6,9c0-5,4-9,9-9s9,4,9,9"/>
</svg>
